<svg width="57" height="57" viewBox="0 0 57 57" fill="none" xmlns="http://www.w3.org/2000/svg">
<path d="M28.219 56.9622C43.8039 56.9622 56.4379 44.2108 56.4379 28.4811C56.4379 12.7514 43.8039 0 28.219 0C12.6341 0 0 12.7514 0 28.4811C0 44.2108 12.6341 56.9622 28.219 56.9622Z" fill="#FFF5CA"/>
<path d="M35.9993 18.9531C35.0519 18.9531 34.2822 19.73 34.2822 20.6861C34.2822 21.6423 35.0519 22.4191 35.9993 22.4191C36.9466 22.4191 37.7163 21.6423 37.7163 20.6861C37.7163 19.73 36.9466 18.9531 35.9993 18.9531Z" fill="#918A43"/>
<path d="M28.3376 21.1768C24.3469 21.1768 21.1023 24.4515 21.1023 28.4793C21.1023 32.5071 24.3469 35.7818 28.3376 35.7818C32.3283 35.7818 35.573 32.5071 35.573 28.4793C35.573 24.4515 32.3283 21.1768 28.3376 21.1768ZM28.3376 33.1525C25.7798 33.1525 23.7075 31.0489 23.7075 28.4793C23.7075 25.9097 25.7916 23.8062 28.3376 23.8062C30.8836 23.8062 32.9678 25.9097 32.9678 28.4793C32.9678 31.0489 30.8836 33.1525 28.3376 33.1525Z" fill="#918A43"/>
<path d="M34.0809 43.2986H22.3575C17.4906 43.2986 13.5354 39.3067 13.5354 34.3946V22.5623C13.5354 17.6501 17.4906 13.6582 22.3575 13.6582H34.0809C38.9479 13.6582 42.903 17.6501 42.903 22.5623V34.3946C42.903 39.3067 38.9479 43.2986 34.0809 43.2986ZM22.3575 16.443C19.0181 16.443 16.2945 19.1919 16.2945 22.5623V34.3946C16.2945 37.765 19.0181 40.5139 22.3575 40.5139H34.0809C37.4203 40.5139 40.1439 37.765 40.1439 34.3946V22.5623C40.1439 19.1919 37.4203 16.443 34.0809 16.443H22.3575Z" fill="#918A43"/>
</svg>
