<svg width="57" height="57" viewBox="0 0 57 57" fill="none" xmlns="http://www.w3.org/2000/svg">
<path d="M28.219 56.9622C43.8039 56.9622 56.4379 44.2108 56.4379 28.4811C56.4379 12.7514 43.8039 0 28.219 0C12.6341 0 0 12.7514 0 28.4811C0 44.2108 12.6341 56.9622 28.219 56.9622Z" fill="#FFF5CA"/>
<path d="M13.689 43.1797L15.7731 35.3154C14.5889 33.1641 13.9732 30.7499 13.9732 28.2997C13.9732 20.292 20.4269 13.7783 28.3609 13.7783C36.2949 13.7783 42.7487 20.292 42.7487 28.2997C42.7487 36.3074 36.2949 42.8212 28.3609 42.8212C25.9807 42.8212 23.6242 42.2116 21.5164 41.0643L13.689 43.1797ZM21.9072 38.1122L22.4045 38.411C24.2163 39.4986 26.2768 40.0723 28.3609 40.0723C34.791 40.0723 40.0251 34.7896 40.0251 28.2997C40.0251 21.8099 34.791 16.5272 28.3609 16.5272C21.9308 16.5272 16.6968 21.8099 16.6968 28.2997C16.6968 30.4391 17.2889 32.5546 18.402 34.4071L18.7099 34.9091L17.5494 39.2954L21.9309 38.1122H21.9072Z" fill="#918A43"/>
<path fill-rule="evenodd" clip-rule="evenodd" d="M33.7135 30.3182C33.1214 29.9597 32.3517 29.5652 31.653 29.8521C31.1202 30.0672 30.7768 30.9158 30.4333 31.3461C30.2557 31.5731 30.0426 31.597 29.7702 31.4895C27.7571 30.6768 26.2177 29.3262 25.1164 27.4617C24.9269 27.1749 24.9625 26.9478 25.1874 26.6729C25.519 26.2785 25.9453 25.8243 26.0282 25.2865C26.1229 24.7487 25.8743 24.1272 25.6493 23.6491C25.3651 23.0396 25.0572 22.1671 24.4532 21.8205C23.8967 21.4978 23.1625 21.6771 22.6651 22.0834C21.8125 22.7886 21.3981 23.8881 21.4099 24.9877C21.4099 25.2985 21.4454 25.6092 21.5283 25.908C21.7059 26.6251 22.0257 27.3064 22.4046 27.9398C22.6888 28.4179 22.9849 28.8959 23.3164 29.3382C24.394 30.8082 25.7322 32.0871 27.2716 33.0552C28.0413 33.5332 28.8821 33.9515 29.7465 34.2384C30.7175 34.5611 31.582 34.8957 32.6241 34.6926C33.7135 34.4774 34.7911 33.7962 35.2293 32.7325C35.3595 32.4217 35.4187 32.0632 35.3477 31.7285C35.1937 31.0353 34.2819 30.629 33.7254 30.2943L33.7135 30.3182Z" fill="#918A43"/>
</svg>
